# xmcd CD database file
#
# Track frame offsets:
#	150
#	24593
#	57660
#	80378
#	103851
#	128559
#	147140
#	169205
#	190745
#	212220
#	242352
#	269855
#	294903
#
# Disc length: 4323 seconds
#
# Revision: 0
# Processed by: cddbd v1.5.2PL0 Copyright (c) Steve Scherf et al.
# Submitted via: CDex 1.70beta2
#
DISCID=bf10e10d
DTITLE=Jeri Brown - New Wonderland - The Best of Jeri Brown
DYEAR=2007
DGENRE=Jazz
TTITLE0=No Moon At All
TTITLE1=Orange Colored Sky
TTITLE2=Old Orleans
TTITLE3=WHo's Been Loving You?
TTITLE4=New Wonderland
TTITLE5=Once Upon A Summertime
TTITLE6=Let It Be Me
TTITLE7=Will It Go Round In Circles?
TTITLE8=Ooo-Shoo-Be-Doo-Be
TTITLE9=Joy
TTITLE10=Fresh Start
TTITLE11=The Dark Night Of The Soul
TTITLE12=Fireflies
EXTD=YEAR: 2007
EXTT0=
EXTT1=
EXTT2=
EXTT3=
EXTT4=
EXTT5=
EXTT6=
EXTT7=
EXTT8=
EXTT9=
EXTT10=
EXTT11=
EXTT12=
PLAYORDER=
